<svg width="40" height="40" viewBox="0 0 40 40" fill="none" xmlns="http://www.w3.org/2000/svg">
<circle cx="20" cy="20" r="20" fill="black"/>
<g clip-path="url(#clip0_525_113)">
<path d="M31.9917 18.9805C31.9917 19.6836 31.3667 20.2344 30.6583 20.2344H29.325L29.3542 26.4922C29.3542 26.5977 29.3458 26.7031 29.3333 26.8086V27.4375C29.3333 28.3008 28.5875 29 27.6667 29H27C26.9542 29 26.9083 29 26.8625 28.9961C26.8042 29 26.7458 29 26.6875 29H25.3333H24.3333C23.4125 29 22.6667 28.3008 22.6667 27.4375V26.5V24C22.6667 23.3086 22.0708 22.75 21.3333 22.75H18.6667C17.9292 22.75 17.3333 23.3086 17.3333 24V26.5V27.4375C17.3333 28.3008 16.5875 29 15.6667 29H14.6667H13.3375C13.275 29 13.2125 28.9961 13.15 28.9922C13.1 28.9961 13.05 29 13 29H12.3333C11.4125 29 10.6667 28.3008 10.6667 27.4375V23.0625C10.6667 23.0273 10.6667 22.9883 10.6708 22.9531V20.2344H9.33333C8.58333 20.2344 8 19.6875 8 18.9805C8 18.6289 8.125 18.3164 8.41667 18.043L19.1 9.3125C19.3917 9.03906 19.725 9 20.0167 9C20.3083 9 20.6417 9.07812 20.8917 9.27344L31.5333 18.043C31.8667 18.3164 32.0333 18.6289 31.9917 18.9805Z" fill="white"/>
</g>
<defs>
<clipPath id="clip0_525_113">
<rect width="24" height="20" fill="white" transform="translate(8 9)"/>
</clipPath>
</defs>
</svg>
