<svg width="40" height="40" viewBox="0 0 40 40" fill="none" xmlns="http://www.w3.org/2000/svg">
<circle cx="20" cy="20" r="20" fill="black"/>
<g clip-path="url(#clip0_525_116)">
<path d="M20 8C20.2156 8 20.4313 8.04688 20.6281 8.13594L29.4547 11.8812C30.486 12.3172 31.2547 13.3344 31.25 14.5625C31.2266 19.2125 29.3141 27.7203 21.2375 31.5875C20.4547 31.9625 19.5453 31.9625 18.7625 31.5875C10.686 27.7203 8.77346 19.2125 8.75002 14.5625C8.74533 13.3344 9.51408 12.3172 10.5453 11.8812L19.3766 8.13594C19.5688 8.04688 19.7844 8 20 8ZM20 11.1312V28.85C26.4688 25.7187 28.2078 18.7859 28.25 14.6281L20 11.1312Z" fill="white"/>
</g>
<defs>
<clipPath id="clip0_525_116">
<rect width="24" height="24" fill="white" transform="translate(8 8)"/>
</clipPath>
</defs>
</svg>
