<svg width="40" height="40" viewBox="0 0 40 40" fill="none" xmlns="http://www.w3.org/2000/svg">
<g clip-path="url(#clip0_546_127)">
<path fill-rule="evenodd" clip-rule="evenodd" d="M33.3333 0C35.1014 0 36.7971 0.702379 38.0474 1.95262C39.2976 3.20286 40 4.89856 40 6.66667V33.3333C40 35.1014 39.2976 36.7971 38.0474 38.0474C36.7971 39.2976 35.1014 40 33.3333 40H6.66667C4.89856 40 3.20286 39.2976 1.95262 38.0474C0.702379 36.7971 0 35.1014 0 33.3333V6.66667C0 4.89856 0.702379 3.20286 1.95262 1.95262C3.20286 0.702379 4.89856 0 6.66667 0H33.3333ZM11.1111 15.5556C10.5217 15.5556 9.95651 15.7897 9.53976 16.2064C9.12302 16.6232 8.88889 17.1884 8.88889 17.7778V28.8889C8.88889 29.4783 9.12302 30.0435 9.53976 30.4602C9.95651 30.877 10.5217 31.1111 11.1111 31.1111C11.7005 31.1111 12.2657 30.877 12.6825 30.4602C13.0992 30.0435 13.3333 29.4783 13.3333 28.8889V17.7778C13.3333 17.1884 13.0992 16.6232 12.6825 16.2064C12.2657 15.7897 11.7005 15.5556 11.1111 15.5556ZM17.7778 13.3333C17.1884 13.3333 16.6232 13.5675 16.2064 13.9842C15.7897 14.401 15.5556 14.9662 15.5556 15.5556V28.8889C15.5556 29.4783 15.7897 30.0435 16.2064 30.4602C16.6232 30.877 17.1884 31.1111 17.7778 31.1111C18.3671 31.1111 18.9324 30.877 19.3491 30.4602C19.7659 30.0435 20 29.4783 20 28.8889V20.7556C20.867 19.8125 21.9213 19.0609 23.0956 18.5489C23.8356 18.2333 24.9489 18.1044 25.7222 18.3489C25.9788 18.414 26.2073 18.5606 26.3733 18.7667C26.4889 18.9222 26.6667 19.2689 26.6667 20V28.8889C26.6667 29.4783 26.9008 30.0435 27.3175 30.4602C27.7343 30.877 28.2995 31.1111 28.8889 31.1111C29.4783 31.1111 30.0435 30.877 30.4602 30.4602C30.877 30.0435 31.1111 29.4783 31.1111 28.8889V20C31.1111 18.5111 30.7333 17.1867 29.9467 16.1244C29.2228 15.1612 28.2097 14.4549 27.0556 14.1089C25.0511 13.48 22.8311 13.8289 21.3489 14.4644C20.874 14.6677 20.4117 14.8992 19.9644 15.1578C19.8713 14.6458 19.6014 14.1827 19.2018 13.8493C18.8022 13.5158 18.2982 13.3333 17.7778 13.3333ZM11.1111 8.88889C10.5217 8.88889 9.95651 9.12302 9.53976 9.53976C9.12302 9.95651 8.88889 10.5217 8.88889 11.1111C8.88889 11.7005 9.12302 12.2657 9.53976 12.6825C9.95651 13.0992 10.5217 13.3333 11.1111 13.3333C11.7005 13.3333 12.2657 13.0992 12.6825 12.6825C13.0992 12.2657 13.3333 11.7005 13.3333 11.1111C13.3333 10.5217 13.0992 9.95651 12.6825 9.53976C12.2657 9.12302 11.7005 8.88889 11.1111 8.88889Z" fill="#FFF700"/>
</g>
<defs>
<clipPath id="clip0_546_127">
<rect width="40" height="40" fill="white"/>
</clipPath>
</defs>
</svg>
