<svg width="40" height="40" viewBox="0 0 40 40" fill="none" xmlns="http://www.w3.org/2000/svg">
<circle cx="20" cy="20" r="20" fill="black"/>
<path d="M8 21.6C8 24.5812 10.4188 27 13.4 27H27.2C29.8513 27 32 24.8512 32 22.2C32 19.8787 30.35 17.94 28.16 17.4975C28.3137 17.0962 28.4 16.6575 28.4 16.2C28.4 14.2125 26.7875 12.6 24.8 12.6C24.0613 12.6 23.3713 12.825 22.8013 13.2075C21.7625 11.4075 19.8238 10.2 17.6 10.2C14.285 10.2 11.6 12.885 11.6 16.2C11.6 16.3012 11.6038 16.4025 11.6075 16.5037C9.5075 17.2425 8 19.245 8 21.6Z" fill="white"/>
</svg>
