<svg width="40" height="40" viewBox="0 0 40 40" fill="none" xmlns="http://www.w3.org/2000/svg">
<circle cx="20" cy="20" r="20" fill="black"/>
<path d="M10.2312 22.0813L18.7016 29.9891C19.0531 30.3172 19.5172 30.5 20 30.5C20.4828 30.5 20.9469 30.3172 21.2984 29.9891L29.7687 22.0813C31.1937 20.7547 32 18.8938 32 16.9484V16.6766C32 13.4 29.6328 10.6063 26.4031 10.0672C24.2656 9.71094 22.0906 10.4094 20.5625 11.9375L20 12.5L19.4375 11.9375C17.9094 10.4094 15.7344 9.71094 13.5969 10.0672C10.3672 10.6063 8 13.4 8 16.6766V16.9484C8 18.8938 8.80625 20.7547 10.2312 22.0813Z" fill="white"/>
</svg>
