<svg width="40" height="40" viewBox="0 0 40 40" fill="none" xmlns="http://www.w3.org/2000/svg">
<g clip-path="url(#clip0_2721_161)">
<path d="M20 40C31.0457 40 40 31.0457 40 20C40 8.95429 31.0457 0 20 0C8.95429 0 0 8.95429 0 20C0 31.0457 8.95429 40 20 40Z" fill="#FFF500"/>
<path d="M16.9629 5.87818C15.7034 6.14389 14.9556 6.40955 13.6174 7.06881C12.1512 7.79698 11.0492 8.62349 9.77002 9.95184C7.26088 12.5496 5.98168 15.5409 5.73568 19.3193C5.48971 23.334 7.37894 27.8997 10.3997 30.5662C11.5018 31.5404 13.5977 32.9474 13.7355 32.8097C13.7551 32.79 13.4206 32.2882 12.9876 31.7077C11.6494 29.907 10.6556 27.6241 10.2522 25.4692C10.0455 24.318 10.016 21.5432 10.2128 20.4509C10.4096 19.2898 10.8131 17.8237 11.1771 16.9086C12.102 14.6258 13.8634 12.4905 15.7329 11.4082C17.9764 10.0994 20.5052 9.88298 23.2407 10.7588L24.018 11.0048L25.0611 10.7489C25.2234 10.7108 25.3741 10.6753 25.5139 10.6424C26.8048 10.3386 27.1659 10.2536 27.1784 10.2896C27.1833 10.3036 27.1356 10.3359 27.0693 10.3807C27.0626 10.3852 27.0557 10.3899 27.0487 10.3946C25.8777 11.2015 25.3365 11.7722 24.8938 12.707C23.7622 15.0784 24.7462 18.0008 27.0684 19.1816C29.0757 20.1951 31.2995 19.8409 33.0509 18.2173C33.7496 17.5678 34.1333 17.0562 34.1333 16.761C34.1333 16.6429 34.0153 16.702 33.6709 17.007C31.3093 19.0832 27.6981 18.0205 26.7535 14.9702C26.5567 14.3109 26.5075 13.5729 26.6551 13.2187C26.724 13.0416 26.7338 13.0514 26.7929 13.3171C26.9995 14.2716 27.1766 14.6553 27.58 15.0784C28.2885 15.8065 28.7116 15.9738 29.8039 15.9738C30.8567 15.9738 31.2404 15.8262 31.9883 15.1571C34.7828 12.6381 29.4299 7.48207 22.4732 5.98641C21.0464 5.67156 18.2027 5.62236 16.9629 5.87818Z" fill="black"/>
<path d="M20.889 11.6935C20.1608 11.9985 20.21 13.0907 20.9677 13.3564C21.5777 13.5729 22.2764 12.9727 22.1485 12.3331C22.0599 11.8411 21.3613 11.4869 20.889 11.6935Z" fill="black"/>
<path d="M28.6132 28.2047C30.4041 27.083 32.431 25.1347 33.5921 23.4226C33.9661 22.8617 34.2908 22.4484 34.3105 22.5074C34.3695 22.6846 33.6315 25.1937 33.2773 25.9809C31.4372 30.1726 28.1606 32.977 23.8213 34.0496C22.5617 34.3644 20.3478 34.3644 19.1769 34.0496C16.097 33.2132 13.9618 31.2058 12.9975 28.2244C12.7416 27.4569 12.3677 25.853 12.4268 25.794C12.4465 25.7742 12.6826 26.0596 12.9581 26.4336C13.6568 27.3683 14.9457 28.5786 15.8313 29.1296C16.7169 29.6806 17.76 30.1038 18.8325 30.3498C19.8066 30.5761 22.1386 30.6056 23.162 30.399C24.7856 30.0841 27.1373 29.1395 28.6132 28.2047Z" fill="black"/>
</g>
<defs>
<clipPath id="clip0_2721_161">
<rect width="40" height="40" fill="white"/>
</clipPath>
</defs>
</svg>
